<?xml version="1.0" encoding="utf-8"?>
<!-- Generator: Adobe Illustrator 23.0.3, SVG Export Plug-In . SVG Version: 6.00 Build 0)  -->
<svg version="1.1" id="Ebene_1" xmlns="http://www.w3.org/2000/svg" xmlns:xlink="http://www.w3.org/1999/xlink" x="0px" y="0px"
	 viewBox="0 0 273.04 267.42" style="enable-background:new 0 0 273.04 267.42;" xml:space="preserve">
<style type="text/css">
	.st0{fill:#FFFFFF;}
</style>
<g>
	<path class="st0" d="M135.17,105.43c21.94,0,39.73-17.79,39.73-39.73s-17.79-39.73-39.73-39.73S95.43,43.75,95.43,65.7
		S113.22,105.43,135.17,105.43"/>
	<path class="st0" d="M209.44,237.85c-4.06,0-7.37-1.28-9.93-3.83c-2.56-2.56-3.83-6.2-3.83-10.94c0-4.59,1.05-8.12,3.16-10.6
		l6.09,1.02c3.98,0.6,7.12,1.22,9.42,1.86c2.29,0.64,4.24,1.73,5.87,3.27c1.61,1.54,2.42,3.74,2.42,6.6c0,3.83-1.23,6.9-3.67,9.19
		C216.52,236.7,213.35,237.85,209.44,237.85 M203.46,167.46c2.93,0,5.45,1.39,7.56,4.17c2.1,2.78,3.16,6.2,3.16,10.26
		c0,3.23-0.55,5.6-1.64,7.11c-1.09,1.5-2.35,2.26-3.78,2.26c-2.93,0-5.34-1.5-7.22-4.51c-1.88-3.01-2.82-6.46-2.82-10.38
		C198.72,170.44,200.3,167.46,203.46,167.46 M211.81,204.69c-3.31-0.6-5.87-1.13-7.67-1.58c-1.8-0.45-3.33-1.13-4.57-2.03
		c-1.24-0.9-1.86-2.18-1.86-3.83c0-1.88,0.75-3.42,2.26-4.62c1.8,0.45,3.72,0.68,5.75,0.68c3.16,0,6.24-0.56,9.25-1.69
		c3-1.13,5.47-2.76,7.39-4.91c1.92-2.14,2.88-4.64,2.88-7.5c0-2.93-0.98-5.56-2.93-7.9h0.9c2.48,0,5.3,0.64,8.46,1.92
		c0.23,0.23,0.49-0.3,0.79-1.58c0.3-1.28,0.45-2.44,0.45-3.5c0-2.1-0.3-3.16-0.9-3.16c-2.26,0-4.36,0.34-6.32,1.02
		c-1.96,0.68-3.95,1.69-5.98,3.05c-3.31-2.48-7.49-3.72-12.52-3.72c-3.01,0-6.02,0.55-9.02,1.64c-3.01,1.09-5.49,2.69-7.44,4.79
		c-1.96,2.11-2.93,4.66-2.93,7.67c0,2.71,0.9,5.23,2.71,7.56c1.8,2.33,4.36,4.06,7.67,5.19c-3.09,1.73-5.36,3.59-6.82,5.58
		c-1.47,1.99-2.2,3.93-2.2,5.81c0,2.18,0.62,3.91,1.86,5.19s2.99,2.26,5.24,2.93c-4.51,3.23-7.6,6.2-9.25,8.91
		c-1.66,2.71-2.48,5.34-2.48,7.9c0,3.83,1.76,6.95,5.3,9.36c3.53,2.4,8.08,3.61,13.65,3.61c5.11,0,9.87-1.05,14.27-3.16
		c4.4-2.11,7.9-4.93,10.49-8.46c2.59-3.53,3.89-7.33,3.89-11.39c0-3.31-0.96-5.87-2.88-7.67c-1.92-1.8-4.19-3.08-6.82-3.83
		C219.77,206.19,216.24,205.44,211.81,204.69 M162.86,203.22c-2.18,1.05-4.1,1.58-5.75,1.58c-1.35,0-2.48-0.45-3.38-1.35
		c-0.9-0.9-1.35-2.14-1.35-3.72c0-1.28,0.43-2.37,1.3-3.27c0.86-0.9,2.31-1.73,4.34-2.48l6.2-2.26v8.35c0,1.05,0.04,1.84,0.11,2.37
		L162.86,203.22z M182.6,203.56c-1.13,0.53-2.22,0.79-3.27,0.79c-1.43,0-2.54-0.6-3.33-1.8c-0.79-1.2-1.18-2.89-1.18-5.08V177.5
		c0-4.06-1.11-7.14-3.33-9.25c-2.22-2.1-5.1-3.16-8.63-3.16c-2.71,0-5.87,0.64-9.47,1.92c-3.61,1.28-6.69,2.93-9.25,4.96
		c-2.56,2.03-3.83,4.06-3.83,6.09c0,3.08,1.77,4.62,5.3,4.62c3.98,0,6.2-2.1,6.65-6.32c0.23-3.08,0.86-5.3,1.92-6.65
		c1.05-1.35,2.48-2.03,4.29-2.03c2.03,0,3.5,1.07,4.4,3.21c0.9,2.14,1.35,5.47,1.35,9.98v8.91l-11.5,3.72
		c-3.53,1.2-6.11,2.16-7.73,2.88c-1.62,0.72-2.86,1.6-3.72,2.65c-0.87,1.05-1.3,2.45-1.3,4.17c0,2.33,0.69,4.12,2.09,5.36
		c1.39,1.24,3.29,1.86,5.7,1.86c1.65,0,3.53-0.32,5.64-0.96c2.1-0.64,4.13-1.45,6.09-2.42l5.19-2.82c0.45,1.96,1.22,3.5,2.31,4.62
		c1.09,1.13,2.2,1.69,3.33,1.69c0.45,0,0.83-0.08,1.13-0.23l11.62-5.53c0.3-0.15,0.39-0.39,0.28-0.73s-0.32-0.51-0.62-0.51H182.6z
		 M127.78,164.98c-1.5,0-3.25,0.64-5.24,1.92c-1.99,1.28-4.53,3.5-7.61,6.65c-0.15-2.63-0.58-4.72-1.3-6.26
		c-0.72-1.54-1.49-2.31-2.31-2.31c-0.08,0-0.34,0.08-0.79,0.23l-15.68,7.67c-0.15,0.08-0.17,0.3-0.06,0.68
		c0.11,0.38,0.28,0.56,0.51,0.56h0.23c2.33-1.05,4.13-1.58,5.41-1.58c1.2,0,2.09,0.55,2.65,1.64c0.56,1.09,0.85,2.8,0.85,5.13v21.2
		c0,3.01-0.42,5.06-1.24,6.15c-0.83,1.09-2.41,1.64-4.74,1.64c-0.23,0-0.34,0.23-0.34,0.68c0,0.45,0.11,0.68,0.34,0.68
		c1.95,0,3.5-0.04,4.62-0.11l6.65-0.11l9.14,0.11c1.5,0.08,3.57,0.11,6.2,0.11c0.3,0,0.45-0.23,0.45-0.68
		c0-0.45-0.15-0.68-0.45-0.68c-3.83,0-6.47-0.54-7.9-1.64c-1.43-1.09-2.14-3.14-2.14-6.15v-24.25c1.8-1.8,3.14-2.99,4-3.55
		c0.86-0.56,1.67-0.85,2.42-0.85c0.68,0,1.26,0.17,1.75,0.51c0.49,0.34,1.07,0.88,1.75,1.64c0.75,0.9,1.48,1.58,2.2,2.03
		c0.71,0.45,1.64,0.68,2.76,0.68c1.58,0,2.86-0.51,3.83-1.52c0.98-1.02,1.47-2.31,1.47-3.89c0-1.73-0.81-3.21-2.42-4.46
		C131.18,165.6,129.51,164.98,127.78,164.98 M64.05,205.7c-3.69,0-6.65-1.78-8.91-5.36c-2.26-3.57-3.38-8.52-3.38-14.83
		c0-6.32,1.07-10.88,3.21-13.7c2.14-2.82,5.24-4.23,9.31-4.23c2.26,0,4.23,0.43,5.92,1.3c1.69,0.87,3.21,2.24,4.57,4.12v27.41v0.56
		C71.39,204.12,67.81,205.7,64.05,205.7 M93.15,202.32c-2.11,0.83-3.65,1.24-4.62,1.24c-1.13,0-1.94-0.53-2.42-1.58
		c-0.49-1.05-0.73-2.86-0.73-5.41v-67.22c0-0.3-0.23-0.62-0.68-0.96c-0.45-0.34-0.87-0.51-1.24-0.51L83,127.99l-16.58,7.78
		c-0.15,0.08-0.13,0.32,0.06,0.73c0.19,0.42,0.43,0.62,0.73,0.62h0.11c1.8-0.83,3.19-1.24,4.17-1.24c1.2,0,2.05,0.56,2.54,1.69
		c0.49,1.13,0.73,3.01,0.73,5.64V166c-3.08-0.9-6.02-1.35-8.8-1.35c-3.99,0-7.95,0.83-11.9,2.48c-3.95,1.66-7.26,4.31-9.93,7.95
		c-2.67,3.65-4,8.33-4,14.04c0,4.51,0.79,8.44,2.37,11.79c1.58,3.35,3.7,5.89,6.37,7.61c2.67,1.73,5.66,2.59,8.97,2.59
		c5.79,0,11.47-2.63,17.03-7.9c0.15,2.48,0.51,4.44,1.07,5.87c0.56,1.43,1.18,2.14,1.86,2.14l0.56-0.11l15.56-7.56
		c0.15-0.07,0.13-0.3-0.06-0.68c-0.19-0.37-0.39-0.56-0.62-0.56H93.15z"/>
</g>
</svg>
